<?xml version="1.0" standalone="no"?>
<!DOCTYPE svg PUBLIC "-//W3C//DTD SVG 20010904//EN"
 "http://www.w3.org/TR/2001/REC-SVG-20010904/DTD/svg10.dtd">
<svg version="1.0" xmlns="http://www.w3.org/2000/svg"
 width="720.000000pt" height="1080.000000pt" viewBox="0 0 720.000000 1080.000000"
 preserveAspectRatio="xMidYMid meet">

<g transform="translate(0.000000,1080.000000) scale(0.100000,-0.100000)"
fill="#000000" stroke="none">
<path d="M3136 9263 c-21 -40 -51 -66 -145 -123 -46 -27 -86 -50 -87 -50 -2 0
-1 14 3 30 7 38 1 38 -89 -2 -122 -54 -196 -112 -213 -165 -9 -33 -20 -28 -38
17 -8 22 -20 40 -25 40 -10 0 -56 -68 -85 -125 l-15 -30 -7 28 c-22 84 -94
-49 -97 -179 -2 -35 -4 -64 -6 -64 -2 0 -19 12 -38 26 -49 38 -61 28 -69 -58
-6 -70 4 -149 25 -188 6 -10 4 -30 -4 -55 -17 -47 -4 -99 38 -161 14 -21 26
-47 26 -57 0 -27 45 -200 75 -286 26 -77 25 -86 -10 -93 -32 -5 -65 -65 -65
-118 0 -85 55 -211 126 -290 51 -56 132 -108 193 -123 61 -15 59 -14 102 -132
18 -48 44 -101 58 -118 60 -70 147 -147 167 -147 11 0 29 -9 39 -20 10 -11 32
-22 49 -26 32 -6 73 -30 65 -38 -10 -10 -238 -64 -299 -70 -168 -19 -245 -119
-336 -436 l-44 -155 30 -26 c22 -18 30 -34 30 -58 0 -17 -20 -142 -45 -277
-63 -340 -60 -391 22 -465 48 -44 108 -59 206 -54 60 4 68 2 63 -13 -19 -68
-48 -243 -53 -324 -6 -93 -5 -100 17 -123 22 -23 23 -31 25 -237 3 -212 19
-364 62 -568 8 -41 19 -93 23 -115 5 -22 22 -98 39 -170 17 -71 47 -197 66
-280 20 -82 41 -169 47 -193 8 -32 8 -82 -1 -190 -13 -170 -18 -462 -8 -479
10 -16 -31 -63 -56 -63 -12 0 -40 -12 -62 -25 -31 -19 -54 -25 -100 -25 -35 0
-83 -8 -115 -20 -30 -11 -65 -20 -79 -20 -13 0 -43 -12 -67 -28 -49 -31 -49
-31 -34 -162 5 -47 14 -141 19 -210 16 -219 62 -349 171 -485 27 -33 57 -67
67 -75 83 -68 100 -72 170 -41 69 32 77 58 83 262 3 118 9 181 17 191 7 8 12
31 11 52 -1 22 4 41 12 46 8 5 10 17 6 33 -4 16 -1 29 9 37 8 7 15 19 15 26 0
9 12 14 34 14 38 0 40 -3 51 -83 6 -43 4 -50 -18 -67 -21 -17 -26 -31 -32
-102 -7 -77 -18 -130 -63 -293 -55 -201 -50 -246 37 -332 51 -51 115 -76 207
-81 95 -5 136 6 212 56 94 62 126 145 93 245 -22 68 -69 312 -78 404 -6 66
-25 103 -52 103 -34 0 -52 43 -45 105 7 53 8 55 38 55 56 0 76 11 84 44 14 50
3 157 -18 187 -16 23 -18 38 -13 98 6 69 7 73 47 104 23 17 91 77 151 132 61
55 173 145 250 200 77 54 160 120 186 145 71 71 74 93 60 398 -6 141 -14 322
-17 402 -9 244 -41 569 -71 707 -8 40 -11 78 -7 85 5 7 10 42 11 78 1 36 5
120 9 186 5 89 2 159 -11 259 -9 75 -15 138 -13 141 3 2 38 -2 79 -10 172 -32
197 -36 240 -36 58 0 115 33 154 89 28 40 30 49 29 124 -1 49 -18 172 -42 302
-56 303 -55 292 -17 321 l32 24 -44 158 c-81 292 -159 403 -298 427 -37 7
-234 74 -332 113 -24 9 -43 22 -43 28 0 5 14 23 30 39 17 16 47 58 66 92 19
35 39 63 44 63 5 0 23 20 40 45 17 25 42 56 56 70 13 13 24 31 24 39 0 8 12
26 26 39 14 13 29 39 34 58 4 19 13 48 18 64 27 80 29 116 14 230 l-16 113 37
41 c132 147 154 428 41 547 -29 32 -38 36 -71 32 -21 -3 -44 -7 -52 -9 -11 -3
-19 27 -37 131 -13 74 -35 170 -49 213 -14 43 -25 95 -25 115 0 46 -32 117
-59 134 -12 7 -21 20 -21 28 0 8 -11 33 -25 55 -13 22 -35 61 -49 86 -35 65
-50 75 -70 48 l-15 -23 -16 37 c-8 20 -15 46 -15 57 0 25 -34 27 -88 4 -57
-24 -105 -4 -133 53 -22 46 -42 54 -59 24 -16 -30 -73 -68 -78 -52 -9 28 -66
82 -132 125 -38 26 -72 46 -74 46 -3 0 -12 -12 -20 -27z m891 -1179 c-3 -3
-12 -4 -19 -1 -8 3 -5 6 6 6 11 1 17 -2 13 -5z m-126 -63 c1 -14 2 -13 6 2 7
27 59 22 79 -8 15 -23 33 -145 21 -145 -3 0 -17 4 -31 10 -18 7 -35 5 -60 -5
-48 -20 -63 -19 -43 3 8 9 19 31 23 47 6 29 5 28 -24 -11 -32 -44 -66 -71
-122 -96 -33 -15 -60 -22 -138 -32 -56 -8 -49 -16 14 -17 32 0 52 -3 44 -6 -8
-3 -34 -15 -57 -26 -42 -20 -43 -20 -83 -2 -59 27 -84 65 -71 109 5 20 19 49
31 66 l22 31 25 -39 c33 -51 73 -74 129 -74 90 0 148 65 141 159 -4 52 -3 52
27 55 45 5 66 -2 67 -21z m-162 -127 c-12 -13 -32 -24 -43 -24 -18 1 -18 3 6
16 15 8 33 24 39 37 8 15 14 18 17 9 2 -7 -6 -24 -19 -38z m-614 -107 l40 -32
-24 33 c-26 37 -23 49 8 33 39 -21 41 -125 2 -180 -22 -30 -60 -41 -136 -40
-34 0 -37 2 -17 9 25 10 100 60 91 60 -4 0 -31 -11 -60 -25 -111 -50 -239 -50
-307 1 -21 15 -38 28 -39 28 -1 1 -4 13 -8 28 -6 23 -2 29 24 42 42 22 47 21
68 -21 25 -52 75 -83 132 -83 86 0 143 58 143 147 0 40 1 43 21 37 12 -3 40
-20 62 -37z m149 -64 c9 -40 16 -80 16 -90 -1 -53 -49 99 -50 157 0 42 17 8
34 -67z m-307 -18 c-15 -14 -35 -25 -44 -25 -10 0 -2 10 18 24 45 32 62 32 26
1z m-412 5 c-3 -5 -11 -10 -16 -10 -6 0 -7 5 -4 10 3 6 11 10 16 10 6 0 7 -4
4 -10z m127 -49 c13 -16 42 -41 66 -54 l43 -24 -38 -6 c-21 -4 -57 -7 -80 -7
l-41 0 -7 50 c-10 76 14 94 57 41z m678 -202 c10 -18 9 -20 -7 -17 -10 2 -19
11 -21 21 -5 24 15 21 28 -4z m-139 -766 c46 -72 189 -121 319 -110 111 10
171 39 223 109 11 15 19 14 97 -17 47 -19 130 -50 185 -70 55 -20 128 -52 162
-71 34 -19 68 -34 77 -34 20 0 59 -52 95 -130 34 -73 105 -325 96 -339 -19
-31 -242 -129 -256 -113 -4 4 -1 51 6 104 7 53 16 135 20 182 6 74 5 86 -8 86
-20 0 -24 -14 -37 -140 -12 -119 -39 -309 -45 -328 -3 -8 -25 3 -65 33 -100
73 -154 72 -366 -5 -177 -64 -188 -66 -213 -41 -27 27 -73 27 -189 0 l-90 -20
-58 37 c-85 54 -150 77 -201 70 -22 -3 -87 -26 -143 -51 -57 -25 -106 -45
-110 -45 -9 0 -17 153 -23 396 -2 83 -7 156 -11 163 -19 31 -26 -14 -26 -175
l0 -175 -22 7 c-36 11 -111 50 -137 71 l-25 20 39 137 c48 173 125 336 158
336 5 0 48 15 96 34 47 19 129 44 181 56 52 12 120 30 150 40 81 27 93 25 121
-17z m9 -1257 c6 -8 31 -22 55 -32 53 -20 99 -13 166 22 l45 25 195 -89 c107
-49 222 -100 256 -113 l61 -23 7 -96 c4 -52 11 -113 16 -135 5 -22 9 -91 9
-152 l0 -113 -41 -30 c-93 -67 -300 -125 -485 -136 -268 -16 -572 60 -750 188
l-46 33 5 90 c5 90 51 344 65 356 4 4 25 12 47 19 56 18 196 91 285 149 83 55
92 58 110 37z m238 -1498 c34 -148 77 -321 150 -598 25 -93 28 -116 17 -123
-7 -4 -46 -32 -86 -62 -40 -30 -76 -55 -81 -55 -4 0 -8 109 -8 243 0 258 -9
614 -15 635 -3 6 -1 12 3 12 4 0 13 -24 20 -52z m-329 -1312 c43 -86 78 -129
166 -203 l50 -42 -38 -36 -38 -36 -30 18 c-17 10 -50 41 -74 68 -24 28 -71 79
-104 115 -82 87 -85 100 -30 156 24 24 46 44 50 44 4 0 26 -38 48 -84z m301
-451 l0 -54 -37 -10 c-47 -12 -342 -35 -350 -28 -3 4 6 20 20 36 14 17 28 44
32 61 6 27 10 31 33 26 75 -15 104 -14 187 3 50 10 96 19 103 20 8 1 12 -16
12 -54z m-650 -535 c6 -11 8 -20 6 -20 -3 0 -10 9 -16 20 -6 11 -8 20 -6 20 3
0 10 -9 16 -20z m595 -340 c-3 -5 -12 -10 -18 -10 -7 0 -6 4 3 10 19 12 23 12
15 0z m-105 -30 c0 -5 -5 -10 -11 -10 -5 0 -7 5 -4 10 3 6 8 10 11 10 2 0 4
-4 4 -10z"/>
</g>
</svg>
